<?xml version="1.0" standalone="no"?><!DOCTYPE svg PUBLIC "-//W3C//DTD SVG 1.1//EN" "http://www.w3.org/Graphics/SVG/1.1/DTD/svg11.dtd"><svg t="1571236193542" class="icon" viewBox="0 0 1024 1024" version="1.1" xmlns="http://www.w3.org/2000/svg" p-id="2370" xmlns:xlink="http://www.w3.org/1999/xlink" width="200" height="200"><defs><style type="text/css"></style></defs><path d="M540.176842 927.582316c-127.267368 0-346.981053-81.044211-435.383579-320.744421-45.541053-123.486316-31.888842-261.227789 91.203369-390.905263-88.555789 179.971368-6.209684 372.515368 128.882526 489.133473 154.997895 133.800421 445.864421 179.142737 597.658947-10.307368-87.528421 181.618526-238.721684 232.823579-382.362947 232.823579zM943.157895 479.257263c-86.272 124.372211-274.758737 137.456842-402.541474 47.247158-250.807579-177.061053-122.499368-391.063579-122.499368-391.063579-69.327158 84.277895-125.103158 190.556632-54.209685 333.256421 41.236211 82.999579 123.506526 154.312421 219.297685 178.398316 131.907368 33.163789 296.087579-6.484211 359.952842-167.838316z m-22.878316-158.80421c-51.910737 80.796632-188.469895 63.727158-252.481684 13.288421-142.954105-112.645053-71.173053-237.322105-71.173053-237.322106-71.274105 79.171368-70.169263 192.316632 19.577263 272.090948 111.041684 98.704842 260.218947 54.960842 304.077474-48.058948z" fill="#82AAFF" p-id="2371"></path></svg>