<?xml version="1.0" standalone="no"?><!DOCTYPE svg PUBLIC "-//W3C//DTD SVG 1.1//EN" "http://www.w3.org/Graphics/SVG/1.1/DTD/svg11.dtd"><svg t="1571236390405" class="icon" viewBox="0 0 1024 1024" version="1.1" xmlns="http://www.w3.org/2000/svg" p-id="5156" xmlns:xlink="http://www.w3.org/1999/xlink" width="200" height="200"><defs><style type="text/css"></style></defs><path d="M1020.592346 812.725458c0-5.111481 1.703827-8.519135 1.703827-13.630616v-3.407654c0 6.815308 0 11.926789-1.703827 17.03827zM1022.296173 415.733777c0-34.076539-18.742097-68.153078-51.114809-97.118136 32.372712-28.965058 51.114809-61.33777 51.114809-97.118137C1022.296173 98.821963 793.983361 0 511.148087 0S0 98.821963 0 221.497504c0 34.076539 18.742097 68.153078 51.114809 97.118137-32.372712 28.965058-51.114809 61.33777-51.114809 97.118136 0 34.076539 18.742097 68.153078 51.114809 97.118136-32.372712 28.965058-51.114809 61.33777-51.114809 97.118137 0 34.076539 18.742097 66.449251 49.410982 95.414309C18.742097 732.645591 0 766.72213 0 800.798669c0 122.675541 228.312812 221.497504 511.148087 221.497504 68.153078 0 132.898502-5.111481 192.532445-17.03827-20.445923-8.519135-37.484193-18.742097-54.522462-32.372712-42.595674 5.111481-88.599002 8.519135-136.306157 8.519135C233.424293 981.404326 40.891847 885.990017 40.891847 800.798669c0-23.853577 15.334443-47.707155 42.595674-71.560732 92.006656 61.33777 248.758735 100.52579 427.660566 100.52579 18.742097 0 35.780366 0 54.522462-1.703827-1.703827-10.222962-3.407654-22.14975-3.407654-34.076539v-5.111481c-17.03827 0-34.076539 1.703827-51.114808 1.703827-277.723794 0-470.25624-95.414309-470.25624-180.605657 0-23.853577 15.334443-47.707155 42.595674-71.560732 92.006656 61.33777 248.758735 100.52579 427.660566 100.52579 40.891847 0 80.079867-1.703827 119.267886-6.815308 23.853577-23.853577 52.818636-42.595674 85.191348-54.522462-61.33777 11.926789-129.490849 18.742097-204.459234 18.742096-277.723794 0-470.25624-95.414309-470.25624-180.605657 0-23.853577 15.334443-47.707155 42.595674-71.560732 92.006656 61.33777 248.758735 100.52579 427.660566 100.52579 178.90183 0 335.65391-39.18802 427.660565-100.52579 27.261231 23.853577 42.595674 47.707155 42.595674 71.560732 0 56.22629-81.783694 114.156406-212.978369 149.936772 8.519135 0 15.334443-1.703827 23.853577-1.703827 25.557404 0 49.410982 3.407654 71.560732 11.926789 27.261231-11.926789 52.818636-23.853577 74.968386-39.18802 27.261231 23.853577 42.595674 47.707155 42.595674 71.560732 0 11.926789-5.111481 25.557404-11.926789 39.18802 8.519135 10.222962 17.03827 22.14975 23.853578 35.780366 18.742097-23.853577 28.965058-47.707155 28.965058-73.264559 0-34.076539-18.742097-68.153078-51.114809-97.118137 32.372712-30.668885 51.114809-63.041597 51.114809-97.118136z m-511.148086-11.926789C233.424293 403.806988 40.891847 308.392679 40.891847 221.497504S233.424293 40.891847 511.148087 40.891847 981.404326 136.306156 981.404326 221.497504 788.87188 403.806988 511.148087 403.806988z" p-id="5157" fill="#68cc16"></path><path d="M834.875208 471.960067m-37.484193 0a37.484193 37.484193 0 1 0 74.968386 0 37.484193 37.484193 0 1 0-74.968386 0Z" p-id="5158" fill="#68cc16"></path><path d="M792.279534 604.858569c103.933444 0 189.124792 85.191348 189.124792 189.124792s-85.191348 189.124792-189.124792 189.124792-189.124792-85.191348-189.124792-189.124792 85.191348-189.124792 189.124792-189.124792m0-40.891847c-127.787022 0-230.016639 102.229617-230.016639 230.016639s102.229617 230.016639 230.016639 230.016639S1022.296173 921.770383 1022.296173 793.983361s-102.229617-230.016639-230.016639-230.016639z" p-id="5159" fill="#68cc16"></path><path d="M787.168053 775.241265c0-34.076539 0-109.044925-1.703827-138.009984 0 0 0 1.703827-1.703827 1.703827-11.926789 10.222962-73.264559 59.633943-78.37604 160.159734-5.111481 81.783694 49.410982 132.898502 71.560733 151.640599 5.111481-22.14975 11.926789-83.487521 10.222961-144.825291v-30.668885z m1.703827 192.532445l-1.703827 5.111481c1.703827 15.334443 1.703827 32.372712 1.703827 32.372712l10.222962 1.703827s-1.703827-27.261231 0-42.595673v-1.703827l-10.222962-10.222962c3.407654 8.519135 3.407654 11.926789 0 15.334442z m88.599002-194.236272c-20.445923-88.599002-68.153078-117.56406-76.672213-129.490849 0 22.14975 1.703827 64.745424 1.703827 132.898503v32.372712c0 39.18802-1.703827 76.672213-1.703827 98.821963s6.815308 42.595674 11.926789 44.299501c1.703827-1.703827 5.111481-1.703827 6.815307-5.111481 27.261231-23.853577 74.968386-80.079867 57.930117-173.790349z" p-id="5160" fill="#68cc16"></path></svg>