<?xml version="1.0" standalone="no"?><!DOCTYPE svg PUBLIC "-//W3C//DTD SVG 1.1//EN" "http://www.w3.org/Graphics/SVG/1.1/DTD/svg11.dtd"><svg t="1571413667843" class="icon" viewBox="0 0 1024 1024" version="1.1" xmlns="http://www.w3.org/2000/svg" p-id="7817" xmlns:xlink="http://www.w3.org/1999/xlink" width="200" height="200"><defs><style type="text/css"></style></defs><path d="M268.190476 585.142857a73.142857 73.142857 0 1 1 0-146.285714 73.142857 73.142857 0 0 1 0 146.285714z m243.809524 0a73.142857 73.142857 0 1 1 0-146.285714 73.142857 73.142857 0 0 1 0 146.285714z m243.809524 0a73.142857 73.142857 0 1 1 0-146.285714 73.142857 73.142857 0 0 1 0 146.285714z m-682.666667-73.142857a438.857143 438.857143 0 1 1 877.81181 0.097524A438.857143 438.857143 0 0 1 73.142857 512z m438.857143-512C229.180952 0 0 229.13219 0 512S229.180952 1024 512 1024 1024 794.86781 1024 512 794.819048 0 512 0z" fill="#ffffff" p-id="7818"></path></svg>