<?xml version="1.0" standalone="no"?><!DOCTYPE svg PUBLIC "-//W3C//DTD SVG 1.1//EN" "http://www.w3.org/Graphics/SVG/1.1/DTD/svg11.dtd"><svg t="1571210624634" class="icon" viewBox="0 0 1027 1024" version="1.1" xmlns="http://www.w3.org/2000/svg" p-id="2909" xmlns:xlink="http://www.w3.org/1999/xlink" width="200.5859375" height="200"><defs><style type="text/css"></style></defs><path d="M96.82432 0C43.74016 0 0.47104 43.26912 0.47104 96.22016v288.53248c0 52.81792 30.61248 126.82752 68.19328 164.28544l447.8976 446.86848c37.4528 37.44768 98.80064 37.44768 136.25856 0l345.61536-344.84224c37.4528-37.45792 37.4528-98.67776 0-136.13056l-447.77472-446.8736C513.21344 30.61248 439.08096 0 386.12992 0H96.82432z m128.11776 320.04608c-53.08416 0-96.22016-43.00288-96.22016-95.95392 0-52.96128 43.136-95.96416 96.22016-95.96416 53.08416 0 96.22016 43.00288 96.22016 95.96416-0.128 52.9408-43.136 95.95392-96.22016 95.95392z" fill="#515151" p-id="2910"></path></svg>