<?xml version="1.0" standalone="no"?><!DOCTYPE svg PUBLIC "-//W3C//DTD SVG 1.1//EN" "http://www.w3.org/Graphics/SVG/1.1/DTD/svg11.dtd"><svg t="1571412271897" class="icon" viewBox="0 0 1024 1024" version="1.1" xmlns="http://www.w3.org/2000/svg" p-id="3094" xmlns:xlink="http://www.w3.org/1999/xlink" width="200" height="200"><defs><style type="text/css"></style></defs><path d="M512 12.8C236.7488 12.8 12.8 236.7488 12.8 512s223.9488 499.2 499.2 499.2 499.2-223.9488 499.2-499.2a502.1184 502.1184 0 0 0-282.88-449.9968 38.4 38.4 0 1 0-33.28 69.2224A424.96 424.96 0 0 1 934.4 512c0 232.9088-189.4912 422.4-422.4 422.4S89.6 744.9088 89.6 512 279.0912 89.6 512 89.6a38.4 38.4 0 0 0 0-76.8z" fill="#ffffff" p-id="3095"></path><path d="M691.456 180.224a38.4 38.4 0 0 0-54.3232 0L332.544 484.864a38.2464 38.2464 0 0 0 0 54.272l304.64 304.64a38.2976 38.2976 0 0 0 54.272 0 38.4 38.4 0 0 0 0-54.3232L414.0032 512l277.4528-277.4528a38.4 38.4 0 0 0 0-54.3232z" fill="#ffffff" p-id="3096"></path></svg>